<svg xmlns="http://www.w3.org/2000/svg" version="1.0" width="1024.000000pt" height="1024.000000pt" viewBox="0 0 1024.000000 1024.000000" preserveAspectRatio="xMidYMid meet">
  <defs>
    <linearGradient id="top-grad" x1="0" x2="100%" y1="100%" y2="0">
      <stop stop-color="#ee1586" offset="0%"/>
      <stop stop-color="#98167c" offset="50%"/>
      <stop stop-color="#291a71" offset="80%"/>
      <stop stop-color="#5b89a2" offset="100%"/>
    </linearGradient>
    <linearGradient id="bot-grad" x1="0" x2="100%" y1="100%" y2="0">
      <stop stop-color="#1e1a70" offset="30%"/>
      <stop stop-color="#5b89a2" offset="100%"/>
    </linearGradient>
  </defs>

<g transform="translate(0.000000,1024.000000) scale(0.100000,-0.100000)" stroke="none">
<path fill="url(#top-grad)" d="M4735 10225 c-419 -54 -823 -194 -1181 -411 -341 -206 -678 -518 -905 -840 -300 -423 -492 -940 -540 -1452 -13 -137 -6 -596 10 -692 46 -267 71 -372 133 -555 51 -152 82 -226 169 -400 86 -174 120 -221 195 -265 56 -33 62 -35 154 -35 86 0 99 3 143 28 62 37 71 47 301 347 108 140 241 314 296 385 117 153 461 601 558 729 37 48 87 114 112 146 25 32 70 90 100 130 130 171 171 217 226 259 137 101 267 145 429 144 92 0 124 -5 195 -28 233 -75 380 -228 466 -485 27 -79 29 -96 29 -235 -1 -158 -16 -239 -75 -385 -68 -172 -214 -420 -352 -600 -49 -63 -133 -173 -188 -245 -132 -172 -540 -703 -924 -1205 -170 -223 -331 -432 -357 -466 -82 -106 -94 -136 -94 -239 l0 -90 104 -180 c57 -99 112 -195 122 -213 34 -58 289 -498 390 -672 24 -41 53 -91 64 -111 11 -20 124 -215 250 -434 249 -430 252 -435 334 -435 39 0 49 5 85 43 23 24 71 88 109 142 77 114 152 223 287 415 52 74 164 236 250 360 86 124 269 387 406 585 138 198 280 401 315 452 133 191 237 340 318 457 47 67 121 174 165 238 45 65 169 244 276 398 107 154 225 324 263 378 37 53 92 133 123 177 30 44 73 105 95 135 277 388 466 882 529 1385 18 140 23 409 11 573 -61 835 -479 1621 -1136 2137 -82 64 -281 199 -370 250 -347 199 -784 341 -1187 385 -132 14 -579 11 -703 -5z"/>
<path fill="url(#bot-grad)" d="M4105 2210 c-49 -23 -100 -70 -185 -172 -125 -147 -214 -327 -261 -525 -20 -84 -24 -123 -23 -273 0 -192 14 -272 76 -432 111 -291 344 -545 618 -675 113 -53 133 -61 230 -86 229 -61 472 -54 700 20 154 49 336 156 461 271 184 169 326 420 369 652 6 36 16 87 21 113 25 130 -6 396 -63 552 -59 160 -145 308 -242 413 -50 54 -84 72 -135 72 -71 0 -89 -17 -238 -226 -23 -33 -105 -149 -184 -259 -184 -260 -194 -272 -243 -298 -53 -28 -165 -30 -214 -4 -65 35 -74 48 -318 486 -17 31 -41 73 -52 94 -26 45 -47 81 -95 168 -43 77 -72 106 -118 119 -46 14 -58 12 -104 -10z"/>
</g>
</svg>
